<svg width="450" height="450" viewBox="0 0 450 450" fill="none" xmlns="http://www.w3.org/2000/svg">
<g clip-path="url(#clip0_0_1582)">
<circle opacity="0.103628" cx="225" cy="225" r="225" fill="white"/>
<circle cx="225" cy="225" r="137" fill="white"/>
<path d="M152.72 235C152.72 235.064 152.848 235.021 153.104 234.872C153.36 234.701 153.584 234.381 153.776 233.912C153.989 233.421 154.096 232.717 154.096 231.8V216.088C154.096 215.213 153.989 214.552 153.776 214.104C153.584 213.635 153.36 213.315 153.104 213.144C152.848 212.973 152.72 212.92 152.72 212.984H164.304V216.184C163.92 214.904 162.768 214.264 160.848 214.264H156.4V223.352H161.904C162.331 223.352 162.693 223.288 162.992 223.16C163.291 223.011 163.515 222.861 163.664 222.712C163.813 222.563 163.899 222.467 163.92 222.424V225.528C163.899 225.485 163.813 225.389 163.664 225.24C163.515 225.091 163.291 224.952 162.992 224.824C162.715 224.696 162.363 224.632 161.936 224.632H156.4V233.72H161.392C162.352 233.72 163.173 233.528 163.856 233.144C164.56 232.739 165.061 232.227 165.36 231.608L164.784 235H152.72ZM185.072 235C185.456 234.936 185.648 234.744 185.648 234.424C185.648 234.04 185.488 233.613 185.168 233.144C184.848 232.653 184.667 232.376 184.624 232.312L180.144 225.4L175.12 232.12C174.8 232.547 174.544 232.931 174.352 233.272C174.182 233.592 174.096 233.891 174.096 234.168C174.096 234.637 174.438 234.915 175.12 235H170.32C170.32 235.043 170.448 234.989 170.704 234.84C170.96 234.691 171.323 234.392 171.792 233.944C172.283 233.475 172.87 232.781 173.552 231.864L179.376 224.152L174.224 216.184C173.627 215.267 173.094 214.573 172.624 214.104C172.155 213.635 171.771 213.325 171.472 213.176C171.174 213.005 171.024 212.941 171.024 212.984H176.368C175.963 213.069 175.76 213.272 175.76 213.592C175.76 213.912 175.995 214.435 176.464 215.16L180.912 222.072L185.552 215.928C186.214 215.053 186.544 214.349 186.544 213.816C186.544 213.325 186.224 213.048 185.584 212.984H190.352C190.352 212.963 190.214 213.016 189.936 213.144C189.68 213.251 189.339 213.496 188.912 213.88C188.507 214.243 188.038 214.787 187.504 215.512L181.68 223.288L186.832 231.288C187.515 232.355 188.123 233.165 188.656 233.72C189.19 234.253 189.616 234.616 189.936 234.808C190.256 234.979 190.416 235.043 190.416 235H185.072ZM210.075 218.936C210.075 220.173 209.776 221.283 209.179 222.264C208.603 223.224 207.771 223.981 206.683 224.536C205.595 225.091 204.315 225.368 202.843 225.368C201.947 225.368 200.987 225.272 199.963 225.08V232.056C199.963 232.888 200.069 233.528 200.283 233.976C200.496 234.403 200.731 234.691 200.987 234.84C201.243 234.989 201.371 235.043 201.371 235H196.283C196.283 235.043 196.411 234.989 196.667 234.84C196.923 234.691 197.147 234.403 197.339 233.976C197.552 233.549 197.659 232.909 197.659 232.056V216.024C197.659 215.171 197.552 214.52 197.339 214.072C197.147 213.624 196.923 213.325 196.667 213.176C196.411 213.005 196.283 212.941 196.283 212.984H202.555C203.643 212.984 204.539 213.059 205.243 213.208C205.947 213.336 206.565 213.539 207.099 213.816C208.059 214.307 208.795 215.021 209.307 215.96C209.819 216.877 210.075 217.869 210.075 218.936ZM207.611 219.352C207.611 217.837 207.141 216.611 206.203 215.672C205.264 214.733 204.016 214.264 202.459 214.264H199.963V223.832C200.88 224.003 201.84 224.088 202.843 224.088C204.336 224.088 205.499 223.661 206.331 222.808C207.184 221.933 207.611 220.781 207.611 219.352ZM217.19 215.96C217.19 215.107 217.083 214.467 216.87 214.04C216.678 213.592 216.454 213.293 216.198 213.144C215.942 212.995 215.814 212.941 215.814 212.984H220.902C220.902 212.941 220.774 212.995 220.518 213.144C220.262 213.293 220.027 213.592 219.814 214.04C219.6 214.467 219.494 215.107 219.494 215.96V233.72H224.742C225.702 233.72 226.523 233.528 227.206 233.144C227.91 232.739 228.411 232.227 228.71 231.608L228.134 235H215.814C215.814 235.064 215.942 235.021 216.198 234.872C216.454 234.701 216.678 234.381 216.87 233.912C217.083 233.421 217.19 232.717 217.19 231.8V215.96ZM232.829 224.248C232.829 221.987 233.309 219.971 234.269 218.2C235.251 216.429 236.616 215.053 238.365 214.072C240.136 213.091 242.173 212.6 244.477 212.6C246.397 212.6 248.189 213.027 249.853 213.88C251.539 214.712 252.883 215.971 253.885 217.656C254.909 219.341 255.421 221.368 255.421 223.736C255.421 225.997 254.931 228.013 253.949 229.784C252.989 231.555 251.624 232.931 249.853 233.912C248.104 234.893 246.077 235.384 243.773 235.384C241.853 235.384 240.051 234.968 238.365 234.136C236.701 233.283 235.357 232.013 234.333 230.328C233.331 228.643 232.829 226.616 232.829 224.248ZM252.861 224.216C252.861 222.275 252.456 220.525 251.645 218.968C250.856 217.389 249.757 216.163 248.349 215.288C246.963 214.392 245.395 213.944 243.645 213.944C242.045 213.944 240.616 214.349 239.357 215.16C238.12 215.971 237.149 217.123 236.445 218.616C235.741 220.088 235.389 221.805 235.389 223.768C235.389 225.709 235.784 227.469 236.573 229.048C237.384 230.605 238.483 231.832 239.869 232.728C241.277 233.603 242.856 234.04 244.605 234.04C246.205 234.04 247.624 233.635 248.861 232.824C250.12 232.013 251.101 230.872 251.805 229.4C252.509 227.907 252.861 226.179 252.861 224.216ZM268.121 223.928C269.102 223.928 269.955 223.704 270.681 223.256C271.406 222.787 271.95 222.189 272.313 221.464C272.697 220.717 272.889 219.939 272.889 219.128C272.889 218.296 272.707 217.517 272.345 216.792C272.003 216.045 271.47 215.437 270.745 214.968C270.019 214.499 269.134 214.264 268.089 214.264H265.369V232.056C265.369 232.909 265.475 233.56 265.689 234.008C265.902 234.435 266.137 234.723 266.393 234.872C266.649 235 266.777 235.043 266.777 235H261.689C261.689 235.043 261.817 234.989 262.073 234.84C262.329 234.691 262.553 234.403 262.745 233.976C262.958 233.549 263.065 232.909 263.065 232.056V216.056C263.065 215.181 262.958 214.52 262.745 214.072C262.553 213.603 262.329 213.293 262.073 213.144C261.817 212.973 261.689 212.92 261.689 212.984H268.025C269.689 212.984 271.054 213.261 272.121 213.816C273.209 214.349 273.987 215.053 274.457 215.928C274.947 216.781 275.193 217.72 275.193 218.744C275.193 219.597 274.99 220.44 274.585 221.272C274.179 222.083 273.593 222.797 272.825 223.416C272.078 224.013 271.203 224.429 270.201 224.664L269.689 224.76L275.321 231.928C276.067 232.76 276.686 233.4 277.177 233.848C277.667 234.296 278.019 234.595 278.233 234.744C278.467 234.893 278.606 234.979 278.649 235H274.905L266.201 223.928H268.121ZM283.533 235C283.533 235.064 283.661 235.021 283.917 234.872C284.173 234.701 284.397 234.381 284.589 233.912C284.802 233.421 284.909 232.717 284.909 231.8V216.088C284.909 215.213 284.802 214.552 284.589 214.104C284.397 213.635 284.173 213.315 283.917 213.144C283.661 212.973 283.533 212.92 283.533 212.984H295.117V216.184C294.733 214.904 293.581 214.264 291.661 214.264H287.213V223.352H292.717C293.143 223.352 293.506 223.288 293.805 223.16C294.103 223.011 294.327 222.861 294.477 222.712C294.626 222.563 294.711 222.467 294.733 222.424V225.528C294.711 225.485 294.626 225.389 294.477 225.24C294.327 225.091 294.103 224.952 293.805 224.824C293.527 224.696 293.175 224.632 292.749 224.632H287.213V233.72H292.205C293.165 233.72 293.986 233.528 294.669 233.144C295.373 232.739 295.874 232.227 296.173 231.608L295.597 235H283.533Z" fill="#0B0D17"/>
</g>
<defs>
<clipPath id="clip0_0_1582">
<rect width="450" height="450" fill="white"/>
</clipPath>
</defs>
</svg>
